<?xml version="1.0" standalone="no"?>
<!DOCTYPE svg PUBLIC "-//W3C//DTD SVG 20010904//EN"
 "http://www.w3.org/TR/2001/REC-SVG-20010904/DTD/svg10.dtd">
<svg version="1.0" xmlns="http://www.w3.org/2000/svg"
 width="512.000000pt" height="512.000000pt" viewBox="0 0 512.000000 512.000000"
 preserveAspectRatio="xMidYMid meet">

<g transform="translate(0.000000,512.000000) scale(0.100000,-0.100000)"
fill="#000000" stroke="none">
<path d="M0 2560 l0 -2560 2560 0 2560 0 0 2560 0 2560 -2560 0 -2560 0 0
-2560z m2865 1766 c566 -104 1039 -455 1294 -961 405 -805 148 -1790 -599
-2290 -172 -115 -464 -244 -562 -248 -46 -2 -75 23 -84 70 -11 59 14 79 156
127 694 236 1137 878 1107 1606 -28 702 -517 1312 -1199 1495 -190 51 -412 67
-615 43 -101 -11 -103 -11 -127 11 -48 45 -41 118 12 140 82 33 450 37 617 7z
m-358 -1452 c-3 -3 -12 -4 -19 -1 -8 3 -5 6 6 6 11 1 17 -2 13 -5z m-68 -18
c-2 -2 -15 -9 -29 -15 -24 -11 -24 -11 -6 3 16 13 49 24 35 12z m277 -12 c18
-14 18 -14 -6 -3 -31 14 -36 19 -24 19 6 0 19 -7 30 -16z m-336 -18 c0 -2 -8
-10 -17 -17 -16 -13 -17 -12 -4 4 13 16 21 21 21 13z m381 -13 c13 -16 12 -17
-3 -4 -10 7 -18 15 -18 17 0 8 8 3 21 -13z m-441 -47 c0 -2 -8 -10 -17 -17
-16 -13 -17 -12 -4 4 13 16 21 21 21 13z m501 -13 c13 -16 12 -17 -3 -4 -17
13 -22 21 -14 21 2 0 10 -8 17 -17z m-543 -48 c-6 -14 -13 -23 -15 -21 -5 5
15 46 22 46 3 0 -1 -11 -7 -25z m582 -19 c0 -12 -5 -7 -19 24 -11 24 -11 24 3
6 9 -11 16 -24 16 -30z m-1508 -13 c15 -13 18 -32 18 -109 0 -191 38 -354 124
-529 118 -239 288 -413 523 -533 392 -200 842 -172 1218 76 85 57 235 204 298
292 89 128 166 310 197 468 17 85 65 118 112 75 24 -22 23 -61 -6 -175 -110
-432 -418 -769 -844 -922 -264 -95 -600 -95 -864 0 -427 153 -744 503 -848
934 -39 166 -50 389 -19 426 16 19 68 18 91 -3z m895 -55 c-3 -8 -6 -5 -6 6
-1 11 2 17 5 13 3 -3 4 -12 1 -19z m630 0 c-3 -8 -6 -5 -6 6 -1 11 2 17 5 13
3 -3 4 -12 1 -19z m10 -70 c-3 -7 -5 -2 -5 12 0 14 2 19 5 13 2 -7 2 -19 0
-25z m-640 -60 c-3 -8 -6 -5 -6 6 -1 11 2 17 5 13 3 -3 4 -12 1 -19z m630 0
c-3 -8 -6 -5 -6 6 -1 11 2 17 5 13 3 -3 4 -12 1 -19z m-598 -78 c11 -24 11
-24 -3 -6 -9 11 -16 24 -16 30 0 12 5 7 19 -24z m32 -47 c13 -16 12 -17 -3 -4
-10 7 -18 15 -18 17 0 8 8 3 21 -13z m519 13 c0 -2 -8 -10 -17 -17 -16 -13
-17 -12 -4 4 13 16 21 21 21 13z m-60 -60 c0 -2 -8 -10 -17 -17 -16 -13 -17
-12 -4 4 13 16 21 21 21 13z m-331 -52 c14 -12 -19 -1 -35 12 -18 14 -18 14 6
3 14 -6 27 -13 29 -15z m138 -30 c-3 -3 -12 -4 -19 -1 -8 3 -5 6 6 6 11 1 17
-2 13 -5z"/>
</g>
</svg>
